<svg width="96" height="68" viewBox="0 0 96 68" fill="none" xmlns="http://www.w3.org/2000/svg">
<path d="M91 20.3605V50.2661C91 54.3781 86.8484 57.7425 81.704 57.7425H16.7669C11.6676 57.7425 7.47089 54.3781 7.47089 50.2661V20.3605C7.47089 16.2485 11.6225 12.8841 16.7669 12.8841H27.3266C30.2599 12.8841 32.832 11.3888 33.7797 9.14591C34.7273 6.90299 37.2995 5.40771 40.2327 5.40771H58.2833C61.2165 5.40771 63.7887 6.90299 64.7364 9.14591C65.684 11.3888 68.2562 12.8841 71.1894 12.8841H81.7491C86.8484 12.8841 91 16.2485 91 20.3605Z" stroke="white" stroke-width="10" stroke-linecap="round" stroke-linejoin="round"/>
<path d="M49.2576 46.528C58.2297 46.528 65.5031 40.6702 65.5031 33.4443C65.5031 26.2184 58.2297 20.3606 49.2576 20.3606C40.2854 20.3606 33.012 26.2184 33.012 33.4443C33.012 40.6702 40.2854 46.528 49.2576 46.528Z" stroke="white" stroke-width="10" stroke-linecap="round" stroke-linejoin="round"/>
<path d="M21.4153 12.8842V9.146" stroke="white" stroke-width="10" stroke-linecap="round" stroke-linejoin="round"/>
</svg>
