<svg width="36" height="36" viewBox="0 0 36 36" fill="none" xmlns="http://www.w3.org/2000/svg">
<path d="M14.0545 5.84642C10.9225 6.91922 8.25126 9.26642 6.76806 12.2256C6.24966 13.248 5.87526 14.3352 5.65206 15.4584C5.08326 18.252 5.47926 21.2256 6.76806 23.7744C7.60326 25.4376 8.80566 26.9136 10.2601 28.0656C11.6353 29.16 13.2337 29.9664 14.9329 30.42C17.0713 30.996 19.3537 30.9816 21.5137 30.492C23.4649 30.0456 25.3081 29.1096 26.7769 27.756C28.3321 26.3232 29.4409 24.444 30.0313 22.4208C30.6721 20.2104 30.7585 17.856 30.3553 15.5952C26.3233 15.5952 22.2913 15.5952 18.2521 15.5952C18.2521 17.2656 18.2521 18.9432 18.2521 20.6136C20.5849 20.6136 22.9249 20.6136 25.2577 20.6136C24.9841 22.2192 24.0337 23.6808 22.6801 24.588C21.8305 25.1568 20.8585 25.5312 19.8505 25.704C18.8353 25.8768 17.7913 25.8984 16.7833 25.6968C15.7537 25.4952 14.7745 25.0632 13.9177 24.4584C12.5497 23.5008 11.5057 22.0896 10.9729 20.5128C10.4257 18.9072 10.4185 17.1144 10.9729 15.5088C11.3545 14.3784 11.9953 13.3272 12.8377 12.4776C13.8745 11.412 15.2209 10.656 16.6753 10.3464C17.9209 10.08 19.2313 10.1304 20.4481 10.4976C21.4849 10.8144 22.4353 11.376 23.2201 12.1248C24.0121 11.34 24.7969 10.548 25.5889 9.76322C25.9993 9.33842 26.4385 8.93522 26.8417 8.49602C25.6465 7.38722 24.2353 6.49442 22.7017 5.93282C19.9513 4.90322 16.8337 4.88162 14.0545 5.84642Z" fill="white"/>
<path d="M14.0545 5.8464C16.8337 4.8816 19.9513 4.9032 22.7161 5.9256C24.2497 6.4872 25.6537 7.38 26.8561 8.4888C26.4529 8.9208 26.0209 9.3312 25.6033 9.756C24.8113 10.5408 24.0265 11.3328 23.2345 12.1176C22.4497 11.3688 21.4993 10.8 20.4625 10.4904C19.2457 10.1232 17.9353 10.0728 16.6897 10.3392C15.2353 10.6488 13.8889 11.412 12.8521 12.4704C12.0097 13.32 11.3689 14.3712 10.9873 15.5016C9.58327 14.4144 8.17927 13.32 6.77527 12.2328C8.25127 9.2664 10.9225 6.9192 14.0545 5.8464Z" fill="#E94435"/>
<path d="M5.65206 15.4584C5.87526 14.3352 6.25686 13.248 6.76806 12.2256C8.17206 13.3128 9.57606 14.4072 10.9801 15.4944C10.4257 17.1 10.4329 18.8928 10.9801 20.4984C9.57606 21.5856 8.17206 22.68 6.76806 23.7672C5.47926 21.2328 5.08326 18.252 5.65206 15.4584Z" fill="#F8BB15"/>
<path d="M18.2592 15.588C22.2912 15.588 26.3232 15.588 30.3624 15.588C30.7656 17.8488 30.6792 20.2032 30.0384 22.4136C29.448 24.4368 28.3392 26.3232 26.784 27.7488C25.4232 26.6904 24.0552 25.632 22.7016 24.5736C24.0552 23.6736 25.0056 22.2048 25.2792 20.5992C22.9464 20.5992 20.6064 20.5992 18.2736 20.5992C18.252 18.936 18.2592 17.2656 18.2592 15.588Z" fill="#547DBE"/>
<path d="M6.76807 23.7744C8.17207 22.6872 9.57607 21.5928 10.9801 20.5056C11.5129 22.0896 12.5569 23.4936 13.9249 24.4512C14.7817 25.056 15.7609 25.4808 16.7905 25.6896C17.7985 25.8912 18.8497 25.8696 19.8577 25.6968C20.8657 25.524 21.8377 25.1496 22.6873 24.5808C24.0481 25.6392 25.4161 26.6976 26.7697 27.756C25.3009 29.1168 23.4577 30.0456 21.5065 30.492C19.3537 30.9816 17.0713 30.996 14.9257 30.42C13.2265 29.9664 11.6281 29.16 10.2529 28.0656C8.80567 26.9064 7.60327 25.4304 6.76807 23.7744Z" fill="#34A751"/>
</svg>
